<svg xmlns="http://www.w3.org/2000/svg" xmlns:xlink="http://www.w3.org/1999/xlink" version="1.1" width='30' height='auto' viewBox="0 0 1024 1280" style="enable-background:new 0 0 1024 1024;" xml:space="preserve"><path d="M966,218.6c0-10.6,0.2-21,0.2-31.6C966.2,141.1,942,97.7,902,74.8C879.5,61.9,854.9,58,829.4,58H190.9  c-2.7,0-5.4-0.3-8.1-0.2c-30.9,0.9-59.5,12.7-82.6,33C71.9,115.5,58,152.1,58,189.1v637.6c0,19.8,1,39.5,8.7,58.1  c11.5,27.7,30.9,51.6,57.7,66c19,10.2,40.1,15.4,61.7,15.5c9.4,0,18.7-0.2,28.1-0.2h624.1c0.3,0,0.6,0.2,0.8,0.2  c58.8-0.8,113.8-43.8,124.4-102.7c2.5-14.3,2.4-27.7,2.4-41.9V218.6z M690.7,552h-0.6c-14.5,0.3-29,0-43.6,0H552v138.7  c0,22.4-18.3,39-40,40c-21.6,1-40-19.1-40-40v-0.6c-0.3-14.5,0-29,0-43.6V552H333.3c-22.4,0-39-18.3-40-40c-1-21.6,19.1-40,40-40  h0.6c14.5-0.3,29,0,43.6,0H472V333.3c0-22.4,18.3-39,40-40c21.6-1,40,19.1,40,40V472h138.7c22.4,0,39,18.3,40,40  C731.7,533.6,711.7,552,690.7,552z"/></svg>