<svg 
    xmlns='http://www.w3.org/2000/svg'
    version='1.1'
    width='30'
    height='auto'
    viewBox='0 0 100 125'
    enable-background='new 0 0 100 100'
>
    <path d="M83.023,68.667c-2.776,0.313-7.338,0.313-10.113,0.021c-21.889-2.34-39.266-19.729-41.606-41.605  c-0.294-2.777-0.294-7.336,0.021-10.113c0.557-4.854,1.895-9.465,3.83-13.75c1.145-2.554,0.122-3.901-2.483-2.868  C15.04,7.342,2.121,23.595,0.206,43.192c-0.274,2.777-0.274,7.326,0,10.113c2.381,24.562,21.918,44.108,46.48,46.489  c2.787,0.272,7.326,0.272,10.112,0C76.396,97.881,92.648,84.95,99.65,67.33c1.033-2.604-0.313-3.639-2.867-2.494  C92.486,66.771,87.876,68.109,83.023,68.667z"/></svg>


    